<svg width="538" height="39" viewBox="0 0 538 39" fill="none" xmlns="http://www.w3.org/2000/svg">
<path d="M2.10254 14H0.415039V1.20312H2.10254V14ZM5.74121 14V5.74707H4.23828V4.49023H5.74121V3.51465C5.74121 2.49512 6.01367 1.70703 6.55859 1.15039C7.10352 0.59375 7.87402 0.31543 8.87012 0.31543C9.24512 0.31543 9.61719 0.365234 9.98633 0.464844L9.89844 1.7832C9.62305 1.73047 9.33008 1.7041 9.01953 1.7041C8.49219 1.7041 8.08496 1.85938 7.79785 2.16992C7.51074 2.47461 7.36719 2.91406 7.36719 3.48828V4.49023H9.39746V5.74707H7.36719V14H5.74121ZM18.7754 11.6182L20.9902 4.49023H22.7305L18.9072 15.4678C18.3154 17.0498 17.375 17.8408 16.0859 17.8408L15.7783 17.8145L15.1719 17.7002V16.3818L15.6113 16.417C16.1621 16.417 16.5898 16.3057 16.8945 16.083C17.2051 15.8604 17.46 15.4531 17.6592 14.8613L18.0195 13.8945L14.627 4.49023H16.4023L18.7754 11.6182ZM23.6182 9.15723C23.6182 8.22559 23.7998 7.3877 24.1631 6.64355C24.5322 5.89941 25.042 5.3252 25.6924 4.9209C26.3486 4.5166 27.0957 4.31445 27.9336 4.31445C29.2285 4.31445 30.2744 4.7627 31.0713 5.65918C31.874 6.55566 32.2754 7.74805 32.2754 9.23633V9.35059C32.2754 10.2764 32.0967 11.1084 31.7393 11.8467C31.3877 12.5791 30.8809 13.1504 30.2188 13.5605C29.5625 13.9707 28.8066 14.1758 27.9512 14.1758C26.6621 14.1758 25.6162 13.7275 24.8135 12.8311C24.0166 11.9346 23.6182 10.748 23.6182 9.27148V9.15723ZM25.2529 9.35059C25.2529 10.4053 25.4961 11.252 25.9824 11.8906C26.4746 12.5293 27.1309 12.8486 27.9512 12.8486C28.7773 12.8486 29.4336 12.5264 29.9199 11.8818C30.4062 11.2314 30.6494 10.3232 30.6494 9.15723C30.6494 8.11426 30.4004 7.27051 29.9023 6.62598C29.4102 5.97559 28.7539 5.65039 27.9336 5.65039C27.1309 5.65039 26.4834 5.96973 25.9912 6.6084C25.499 7.24707 25.2529 8.16113 25.2529 9.35059ZM40.1855 13.0596C39.5527 13.8037 38.624 14.1758 37.3994 14.1758C36.3857 14.1758 35.6123 13.8828 35.0791 13.2969C34.5518 12.7051 34.2852 11.832 34.2793 10.6777V4.49023H35.9053V10.6338C35.9053 12.0752 36.4912 12.7959 37.6631 12.7959C38.9053 12.7959 39.7314 12.333 40.1416 11.4072V4.49023H41.7676V14H40.2207L40.1855 13.0596ZM49.2559 14V5.74707H47.7529V4.49023H49.2559V3.68164C49.2559 2.62109 49.5576 1.79492 50.1611 1.20312C50.7705 0.611328 51.6289 0.31543 52.7363 0.31543C53.3926 0.31543 54.2217 0.494141 55.2236 0.851562L54.9512 2.22266C54.2188 1.92969 53.5215 1.7832 52.8594 1.7832C52.1621 1.7832 51.6582 1.94141 51.3477 2.25781C51.043 2.56836 50.8906 3.03711 50.8906 3.66406V4.49023H52.833V5.74707H50.8906V14H49.2559ZM56.0322 14H54.3975V4.49023H56.0322V14ZM60.2158 4.49023L60.2686 5.68555C60.9951 4.77148 61.9443 4.31445 63.1162 4.31445C65.126 4.31445 66.1396 5.44824 66.1572 7.71582V14H64.5312V7.70703C64.5254 7.02148 64.3672 6.51465 64.0566 6.18652C63.752 5.8584 63.2744 5.69434 62.624 5.69434C62.0967 5.69434 61.6338 5.83496 61.2354 6.11621C60.8369 6.39746 60.5264 6.7666 60.3037 7.22363V14H58.6777V4.49023H60.2158ZM68.2139 9.16602C68.2139 7.70703 68.5596 6.53516 69.251 5.65039C69.9424 4.75977 70.8477 4.31445 71.9668 4.31445C73.0801 4.31445 73.9619 4.69531 74.6123 5.45703V0.5H76.2383V14H74.7441L74.665 12.9805C74.0146 13.7773 73.1094 14.1758 71.9492 14.1758C70.8477 14.1758 69.9482 13.7246 69.251 12.8223C68.5596 11.9199 68.2139 10.7422 68.2139 9.28906V9.16602ZM69.8398 9.35059C69.8398 10.4287 70.0625 11.2725 70.5078 11.8818C70.9531 12.4912 71.5684 12.7959 72.3535 12.7959C73.3848 12.7959 74.1377 12.333 74.6123 11.4072V7.03906C74.126 6.14258 73.3789 5.69434 72.3711 5.69434C71.5742 5.69434 70.9531 6.00195 70.5078 6.61719C70.0625 7.23242 69.8398 8.14355 69.8398 9.35059ZM89.1055 14C89.0117 13.8125 88.9355 13.4785 88.877 12.998C88.1211 13.7832 87.2188 14.1758 86.1699 14.1758C85.2324 14.1758 84.4619 13.9121 83.8584 13.3848C83.2607 12.8516 82.9619 12.1777 82.9619 11.3633C82.9619 10.373 83.3369 9.60547 84.0869 9.06055C84.8428 8.50977 85.9033 8.23438 87.2686 8.23438H88.8506V7.4873C88.8506 6.91895 88.6807 6.46777 88.3408 6.13379C88.001 5.79395 87.5 5.62402 86.8379 5.62402C86.2578 5.62402 85.7715 5.77051 85.3789 6.06348C84.9863 6.35645 84.79 6.71094 84.79 7.12695H83.1553C83.1553 6.65234 83.3223 6.19531 83.6562 5.75586C83.9961 5.31055 84.4531 4.95898 85.0273 4.70117C85.6074 4.44336 86.2432 4.31445 86.9346 4.31445C88.0303 4.31445 88.8887 4.58984 89.5098 5.14062C90.1309 5.68555 90.4531 6.43848 90.4766 7.39941V11.7764C90.4766 12.6494 90.5879 13.3438 90.8105 13.8594V14H89.1055ZM86.4072 12.7607C86.917 12.7607 87.4004 12.6289 87.8574 12.3652C88.3145 12.1016 88.6455 11.7588 88.8506 11.3369V9.38574H87.5762C85.584 9.38574 84.5879 9.96875 84.5879 11.1348C84.5879 11.6445 84.7578 12.043 85.0977 12.3301C85.4375 12.6172 85.874 12.7607 86.4072 12.7607ZM94.5635 4.49023L94.6162 5.68555C95.3428 4.77148 96.292 4.31445 97.4639 4.31445C99.4736 4.31445 100.487 5.44824 100.505 7.71582V14H98.8789V7.70703C98.873 7.02148 98.7148 6.51465 98.4043 6.18652C98.0996 5.8584 97.6221 5.69434 96.9717 5.69434C96.4443 5.69434 95.9814 5.83496 95.583 6.11621C95.1846 6.39746 94.874 6.7666 94.6514 7.22363V14H93.0254V4.49023H94.5635ZM106.068 11.6182L108.283 4.49023H110.023L106.2 15.4678C105.608 17.0498 104.668 17.8408 103.379 17.8408L103.071 17.8145L102.465 17.7002V16.3818L102.904 16.417C103.455 16.417 103.883 16.3057 104.188 16.083C104.498 15.8604 104.753 15.4531 104.952 14.8613L105.312 13.8945L101.92 4.49023H103.695L106.068 11.6182ZM123.998 9.35059C123.998 10.8037 123.664 11.9727 122.996 12.8574C122.328 13.7363 121.432 14.1758 120.307 14.1758C119.105 14.1758 118.177 13.751 117.521 12.9014L117.441 14H115.947V0.5H117.573V5.53613C118.229 4.72168 119.135 4.31445 120.289 4.31445C121.443 4.31445 122.349 4.75098 123.005 5.62402C123.667 6.49707 123.998 7.69238 123.998 9.20996V9.35059ZM122.372 9.16602C122.372 8.05859 122.158 7.20312 121.73 6.59961C121.303 5.99609 120.688 5.69434 119.885 5.69434C118.812 5.69434 118.042 6.19238 117.573 7.18848V11.3018C118.071 12.2979 118.848 12.7959 119.902 12.7959C120.682 12.7959 121.288 12.4941 121.722 11.8906C122.155 11.2871 122.372 10.3789 122.372 9.16602ZM131.926 13.0596C131.293 13.8037 130.364 14.1758 129.14 14.1758C128.126 14.1758 127.353 13.8828 126.819 13.2969C126.292 12.7051 126.025 11.832 126.02 10.6777V4.49023H127.646V10.6338C127.646 12.0752 128.231 12.7959 129.403 12.7959C130.646 12.7959 131.472 12.333 131.882 11.4072V4.49023H133.508V14H131.961L131.926 13.0596ZM135.6 9.16602C135.6 7.68359 135.942 6.50586 136.628 5.63281C137.313 4.75391 138.222 4.31445 139.353 4.31445C140.513 4.31445 141.418 4.72461 142.068 5.54492L142.147 4.49023H143.633V13.7715C143.633 15.002 143.267 15.9717 142.534 16.6807C141.808 17.3896 140.829 17.7441 139.599 17.7441C138.913 17.7441 138.242 17.5977 137.586 17.3047C136.93 17.0117 136.429 16.6104 136.083 16.1006L136.927 15.125C137.624 15.9863 138.477 16.417 139.484 16.417C140.275 16.417 140.891 16.1943 141.33 15.749C141.775 15.3037 141.998 14.6768 141.998 13.8682V13.0508C141.348 13.8008 140.46 14.1758 139.335 14.1758C138.222 14.1758 137.319 13.7275 136.628 12.8311C135.942 11.9346 135.6 10.7129 135.6 9.16602ZM137.234 9.35059C137.234 10.4229 137.454 11.2666 137.894 11.8818C138.333 12.4912 138.948 12.7959 139.739 12.7959C140.765 12.7959 141.518 12.3301 141.998 11.3984V7.05664C141.5 6.14844 140.753 5.69434 139.757 5.69434C138.966 5.69434 138.348 6.00195 137.902 6.61719C137.457 7.23242 137.234 8.14355 137.234 9.35059ZM146.041 16.5488L145.118 15.916C145.669 15.1484 145.956 14.3574 145.979 13.543V12.0752H147.57V13.3496C147.57 13.9414 147.424 14.5332 147.131 15.125C146.844 15.7168 146.48 16.1914 146.041 16.5488ZM162.125 9.35059C162.125 10.7979 161.794 11.9639 161.132 12.8486C160.47 13.7334 159.573 14.1758 158.442 14.1758C157.288 14.1758 156.38 13.8096 155.718 13.0771V17.6562H154.092V4.49023H155.577L155.656 5.54492C156.318 4.72461 157.238 4.31445 158.416 4.31445C159.559 4.31445 160.461 4.74512 161.123 5.60645C161.791 6.46777 162.125 7.66602 162.125 9.20117V9.35059ZM160.499 9.16602C160.499 8.09375 160.271 7.24707 159.813 6.62598C159.356 6.00488 158.729 5.69434 157.933 5.69434C156.948 5.69434 156.21 6.13086 155.718 7.00391V11.5479C156.204 12.415 156.948 12.8486 157.95 12.8486C158.729 12.8486 159.348 12.541 159.805 11.9258C160.268 11.3047 160.499 10.3848 160.499 9.16602ZM165.966 14H164.34V0.5H165.966V14ZM172.522 14.1758C171.233 14.1758 170.185 13.7539 169.376 12.9102C168.567 12.0605 168.163 10.9268 168.163 9.50879V9.20996C168.163 8.2666 168.342 7.42578 168.699 6.6875C169.062 5.94336 169.566 5.36328 170.211 4.94727C170.861 4.52539 171.564 4.31445 172.32 4.31445C173.557 4.31445 174.518 4.72168 175.203 5.53613C175.889 6.35059 176.231 7.5166 176.231 9.03418V9.71094H169.789C169.812 10.6484 170.085 11.4072 170.606 11.9873C171.134 12.5615 171.802 12.8486 172.61 12.8486C173.185 12.8486 173.671 12.7314 174.069 12.4971C174.468 12.2627 174.816 11.9521 175.115 11.5654L176.108 12.3389C175.312 13.5635 174.116 14.1758 172.522 14.1758ZM172.32 5.65039C171.664 5.65039 171.113 5.89062 170.668 6.37109C170.223 6.8457 169.947 7.51367 169.842 8.375H174.605V8.25195C174.559 7.42578 174.336 6.78711 173.938 6.33594C173.539 5.87891 173 5.65039 172.32 5.65039ZM183.992 14C183.898 13.8125 183.822 13.4785 183.764 12.998C183.008 13.7832 182.105 14.1758 181.057 14.1758C180.119 14.1758 179.349 13.9121 178.745 13.3848C178.147 12.8516 177.849 12.1777 177.849 11.3633C177.849 10.373 178.224 9.60547 178.974 9.06055C179.729 8.50977 180.79 8.23438 182.155 8.23438H183.737V7.4873C183.737 6.91895 183.567 6.46777 183.228 6.13379C182.888 5.79395 182.387 5.62402 181.725 5.62402C181.145 5.62402 180.658 5.77051 180.266 6.06348C179.873 6.35645 179.677 6.71094 179.677 7.12695H178.042C178.042 6.65234 178.209 6.19531 178.543 5.75586C178.883 5.31055 179.34 4.95898 179.914 4.70117C180.494 4.44336 181.13 4.31445 181.821 4.31445C182.917 4.31445 183.775 4.58984 184.396 5.14062C185.018 5.68555 185.34 6.43848 185.363 7.39941V11.7764C185.363 12.6494 185.475 13.3438 185.697 13.8594V14H183.992ZM181.294 12.7607C181.804 12.7607 182.287 12.6289 182.744 12.3652C183.201 12.1016 183.532 11.7588 183.737 11.3369V9.38574H182.463C180.471 9.38574 179.475 9.96875 179.475 11.1348C179.475 11.6445 179.645 12.043 179.984 12.3301C180.324 12.6172 180.761 12.7607 181.294 12.7607ZM193.449 11.4775C193.449 11.0381 193.282 10.6982 192.948 10.458C192.62 10.2119 192.043 10.001 191.217 9.8252C190.396 9.64941 189.743 9.43848 189.257 9.19238C188.776 8.94629 188.419 8.65332 188.185 8.31348C187.956 7.97363 187.842 7.56934 187.842 7.10059C187.842 6.32129 188.17 5.66211 188.826 5.12305C189.488 4.58398 190.332 4.31445 191.357 4.31445C192.436 4.31445 193.309 4.59277 193.977 5.14941C194.65 5.70605 194.987 6.41797 194.987 7.28516H193.353C193.353 6.83984 193.162 6.45605 192.781 6.13379C192.406 5.81152 191.932 5.65039 191.357 5.65039C190.766 5.65039 190.303 5.7793 189.969 6.03711C189.635 6.29492 189.468 6.63184 189.468 7.04785C189.468 7.44043 189.623 7.73633 189.934 7.93555C190.244 8.13477 190.804 8.3252 191.612 8.50684C192.427 8.68848 193.086 8.90527 193.59 9.15723C194.094 9.40918 194.466 9.71387 194.706 10.0713C194.952 10.4229 195.075 10.8535 195.075 11.3633C195.075 12.2129 194.735 12.8955 194.056 13.4111C193.376 13.9209 192.494 14.1758 191.41 14.1758C190.648 14.1758 189.975 14.041 189.389 13.7715C188.803 13.502 188.343 13.127 188.009 12.6465C187.681 12.1602 187.517 11.6357 187.517 11.0732H189.143C189.172 11.6182 189.389 12.0518 189.793 12.374C190.203 12.6904 190.742 12.8486 191.41 12.8486C192.025 12.8486 192.518 12.7256 192.887 12.4795C193.262 12.2275 193.449 11.8936 193.449 11.4775ZM201.14 14.1758C199.851 14.1758 198.802 13.7539 197.993 12.9102C197.185 12.0605 196.78 10.9268 196.78 9.50879V9.20996C196.78 8.2666 196.959 7.42578 197.316 6.6875C197.68 5.94336 198.184 5.36328 198.828 4.94727C199.479 4.52539 200.182 4.31445 200.938 4.31445C202.174 4.31445 203.135 4.72168 203.82 5.53613C204.506 6.35059 204.849 7.5166 204.849 9.03418V9.71094H198.406C198.43 10.6484 198.702 11.4072 199.224 11.9873C199.751 12.5615 200.419 12.8486 201.228 12.8486C201.802 12.8486 202.288 12.7314 202.687 12.4971C203.085 12.2627 203.434 11.9521 203.732 11.5654L204.726 12.3389C203.929 13.5635 202.733 14.1758 201.14 14.1758ZM200.938 5.65039C200.281 5.65039 199.73 5.89062 199.285 6.37109C198.84 6.8457 198.564 7.51367 198.459 8.375H203.223V8.25195C203.176 7.42578 202.953 6.78711 202.555 6.33594C202.156 5.87891 201.617 5.65039 200.938 5.65039ZM210.772 9.15723C210.772 8.22559 210.954 7.3877 211.317 6.64355C211.687 5.89941 212.196 5.3252 212.847 4.9209C213.503 4.5166 214.25 4.31445 215.088 4.31445C216.383 4.31445 217.429 4.7627 218.226 5.65918C219.028 6.55566 219.43 7.74805 219.43 9.23633V9.35059C219.43 10.2764 219.251 11.1084 218.894 11.8467C218.542 12.5791 218.035 13.1504 217.373 13.5605C216.717 13.9707 215.961 14.1758 215.105 14.1758C213.816 14.1758 212.771 13.7275 211.968 12.8311C211.171 11.9346 210.772 10.748 210.772 9.27148V9.15723ZM212.407 9.35059C212.407 10.4053 212.65 11.252 213.137 11.8906C213.629 12.5293 214.285 12.8486 215.105 12.8486C215.932 12.8486 216.588 12.5264 217.074 11.8818C217.561 11.2314 217.804 10.3232 217.804 9.15723C217.804 8.11426 217.555 7.27051 217.057 6.62598C216.564 5.97559 215.908 5.65039 215.088 5.65039C214.285 5.65039 213.638 5.96973 213.146 6.6084C212.653 7.24707 212.407 8.16113 212.407 9.35059ZM229.502 9.35059C229.502 10.7979 229.171 11.9639 228.509 12.8486C227.847 13.7334 226.95 14.1758 225.819 14.1758C224.665 14.1758 223.757 13.8096 223.095 13.0771V17.6562H221.469V4.49023H222.954L223.033 5.54492C223.695 4.72461 224.615 4.31445 225.793 4.31445C226.936 4.31445 227.838 4.74512 228.5 5.60645C229.168 6.46777 229.502 7.66602 229.502 9.20117V9.35059ZM227.876 9.16602C227.876 8.09375 227.647 7.24707 227.19 6.62598C226.733 6.00488 226.106 5.69434 225.31 5.69434C224.325 5.69434 223.587 6.13086 223.095 7.00391V11.5479C223.581 12.415 224.325 12.8486 225.327 12.8486C226.106 12.8486 226.725 12.541 227.182 11.9258C227.645 11.3047 227.876 10.3848 227.876 9.16602ZM235.522 14.1758C234.233 14.1758 233.185 13.7539 232.376 12.9102C231.567 12.0605 231.163 10.9268 231.163 9.50879V9.20996C231.163 8.2666 231.342 7.42578 231.699 6.6875C232.062 5.94336 232.566 5.36328 233.211 4.94727C233.861 4.52539 234.564 4.31445 235.32 4.31445C236.557 4.31445 237.518 4.72168 238.203 5.53613C238.889 6.35059 239.231 7.5166 239.231 9.03418V9.71094H232.789C232.812 10.6484 233.085 11.4072 233.606 11.9873C234.134 12.5615 234.802 12.8486 235.61 12.8486C236.185 12.8486 236.671 12.7314 237.069 12.4971C237.468 12.2627 237.816 11.9521 238.115 11.5654L239.108 12.3389C238.312 13.5635 237.116 14.1758 235.522 14.1758ZM235.32 5.65039C234.664 5.65039 234.113 5.89062 233.668 6.37109C233.223 6.8457 232.947 7.51367 232.842 8.375H237.605V8.25195C237.559 7.42578 237.336 6.78711 236.938 6.33594C236.539 5.87891 236 5.65039 235.32 5.65039ZM242.659 4.49023L242.712 5.68555C243.438 4.77148 244.388 4.31445 245.56 4.31445C247.569 4.31445 248.583 5.44824 248.601 7.71582V14H246.975V7.70703C246.969 7.02148 246.811 6.51465 246.5 6.18652C246.195 5.8584 245.718 5.69434 245.067 5.69434C244.54 5.69434 244.077 5.83496 243.679 6.11621C243.28 6.39746 242.97 6.7666 242.747 7.22363V14H241.121V4.49023H242.659ZM257.724 2.1875V4.49023H259.499V5.74707H257.724V11.6445C257.724 12.0254 257.803 12.3125 257.961 12.5059C258.119 12.6934 258.389 12.7871 258.77 12.7871C258.957 12.7871 259.215 12.752 259.543 12.6816V14C259.115 14.1172 258.699 14.1758 258.295 14.1758C257.568 14.1758 257.021 13.9561 256.651 13.5166C256.282 13.0771 256.098 12.4531 256.098 11.6445V5.74707H254.366V4.49023H256.098V2.1875H257.724ZM263.032 5.6416C263.753 4.75684 264.69 4.31445 265.845 4.31445C267.854 4.31445 268.868 5.44824 268.886 7.71582V14H267.26V7.70703C267.254 7.02148 267.096 6.51465 266.785 6.18652C266.48 5.8584 266.003 5.69434 265.353 5.69434C264.825 5.69434 264.362 5.83496 263.964 6.11621C263.565 6.39746 263.255 6.7666 263.032 7.22363V14H261.406V0.5H263.032V5.6416ZM275.267 14.1758C273.978 14.1758 272.929 13.7539 272.12 12.9102C271.312 12.0605 270.907 10.9268 270.907 9.50879V9.20996C270.907 8.2666 271.086 7.42578 271.443 6.6875C271.807 5.94336 272.311 5.36328 272.955 4.94727C273.605 4.52539 274.309 4.31445 275.064 4.31445C276.301 4.31445 277.262 4.72168 277.947 5.53613C278.633 6.35059 278.976 7.5166 278.976 9.03418V9.71094H272.533C272.557 10.6484 272.829 11.4072 273.351 11.9873C273.878 12.5615 274.546 12.8486 275.354 12.8486C275.929 12.8486 276.415 12.7314 276.813 12.4971C277.212 12.2627 277.561 11.9521 277.859 11.5654L278.853 12.3389C278.056 13.5635 276.86 14.1758 275.267 14.1758ZM275.064 5.65039C274.408 5.65039 273.857 5.89062 273.412 6.37109C272.967 6.8457 272.691 7.51367 272.586 8.375H277.35V8.25195C277.303 7.42578 277.08 6.78711 276.682 6.33594C276.283 5.87891 275.744 5.65039 275.064 5.65039ZM287.097 14H285.471V4.49023H287.097V14ZM285.339 1.96777C285.339 1.7041 285.418 1.48145 285.576 1.2998C285.74 1.11816 285.98 1.02734 286.297 1.02734C286.613 1.02734 286.854 1.11816 287.018 1.2998C287.182 1.48145 287.264 1.7041 287.264 1.96777C287.264 2.23145 287.182 2.45117 287.018 2.62695C286.854 2.80273 286.613 2.89062 286.297 2.89062C285.98 2.89062 285.74 2.80273 285.576 2.62695C285.418 2.45117 285.339 2.23145 285.339 1.96777ZM295.244 11.4775C295.244 11.0381 295.077 10.6982 294.743 10.458C294.415 10.2119 293.838 10.001 293.012 9.8252C292.191 9.64941 291.538 9.43848 291.052 9.19238C290.571 8.94629 290.214 8.65332 289.979 8.31348C289.751 7.97363 289.637 7.56934 289.637 7.10059C289.637 6.32129 289.965 5.66211 290.621 5.12305C291.283 4.58398 292.127 4.31445 293.152 4.31445C294.23 4.31445 295.104 4.59277 295.771 5.14941C296.445 5.70605 296.782 6.41797 296.782 7.28516H295.147C295.147 6.83984 294.957 6.45605 294.576 6.13379C294.201 5.81152 293.727 5.65039 293.152 5.65039C292.561 5.65039 292.098 5.7793 291.764 6.03711C291.43 6.29492 291.263 6.63184 291.263 7.04785C291.263 7.44043 291.418 7.73633 291.729 7.93555C292.039 8.13477 292.599 8.3252 293.407 8.50684C294.222 8.68848 294.881 8.90527 295.385 9.15723C295.889 9.40918 296.261 9.71387 296.501 10.0713C296.747 10.4229 296.87 10.8535 296.87 11.3633C296.87 12.2129 296.53 12.8955 295.851 13.4111C295.171 13.9209 294.289 14.1758 293.205 14.1758C292.443 14.1758 291.77 14.041 291.184 13.7715C290.598 13.502 290.138 13.127 289.804 12.6465C289.476 12.1602 289.312 11.6357 289.312 11.0732H290.938C290.967 11.6182 291.184 12.0518 291.588 12.374C291.998 12.6904 292.537 12.8486 293.205 12.8486C293.82 12.8486 294.312 12.7256 294.682 12.4795C295.057 12.2275 295.244 11.8936 295.244 11.4775ZM304.525 11.4775C304.525 11.0381 304.358 10.6982 304.024 10.458C303.696 10.2119 303.119 10.001 302.293 9.8252C301.473 9.64941 300.819 9.43848 300.333 9.19238C299.853 8.94629 299.495 8.65332 299.261 8.31348C299.032 7.97363 298.918 7.56934 298.918 7.10059C298.918 6.32129 299.246 5.66211 299.902 5.12305C300.564 4.58398 301.408 4.31445 302.434 4.31445C303.512 4.31445 304.385 4.59277 305.053 5.14941C305.727 5.70605 306.063 6.41797 306.063 7.28516H304.429C304.429 6.83984 304.238 6.45605 303.857 6.13379C303.482 5.81152 303.008 5.65039 302.434 5.65039C301.842 5.65039 301.379 5.7793 301.045 6.03711C300.711 6.29492 300.544 6.63184 300.544 7.04785C300.544 7.44043 300.699 7.73633 301.01 7.93555C301.32 8.13477 301.88 8.3252 302.688 8.50684C303.503 8.68848 304.162 8.90527 304.666 9.15723C305.17 9.40918 305.542 9.71387 305.782 10.0713C306.028 10.4229 306.151 10.8535 306.151 11.3633C306.151 12.2129 305.812 12.8955 305.132 13.4111C304.452 13.9209 303.57 14.1758 302.486 14.1758C301.725 14.1758 301.051 14.041 300.465 13.7715C299.879 13.502 299.419 13.127 299.085 12.6465C298.757 12.1602 298.593 11.6357 298.593 11.0732H300.219C300.248 11.6182 300.465 12.0518 300.869 12.374C301.279 12.6904 301.818 12.8486 302.486 12.8486C303.102 12.8486 303.594 12.7256 303.963 12.4795C304.338 12.2275 304.525 11.8936 304.525 11.4775ZM314.141 13.0596C313.508 13.8037 312.579 14.1758 311.354 14.1758C310.341 14.1758 309.567 13.8828 309.034 13.2969C308.507 12.7051 308.24 11.832 308.234 10.6777V4.49023H309.86V10.6338C309.86 12.0752 310.446 12.7959 311.618 12.7959C312.86 12.7959 313.687 12.333 314.097 11.4072V4.49023H315.723V14H314.176L314.141 13.0596ZM322.147 14.1758C320.858 14.1758 319.81 13.7539 319.001 12.9102C318.192 12.0605 317.788 10.9268 317.788 9.50879V9.20996C317.788 8.2666 317.967 7.42578 318.324 6.6875C318.688 5.94336 319.191 5.36328 319.836 4.94727C320.486 4.52539 321.189 4.31445 321.945 4.31445C323.182 4.31445 324.143 4.72168 324.828 5.53613C325.514 6.35059 325.856 7.5166 325.856 9.03418V9.71094H319.414C319.438 10.6484 319.71 11.4072 320.231 11.9873C320.759 12.5615 321.427 12.8486 322.235 12.8486C322.81 12.8486 323.296 12.7314 323.694 12.4971C324.093 12.2627 324.441 11.9521 324.74 11.5654L325.733 12.3389C324.937 13.5635 323.741 14.1758 322.147 14.1758ZM321.945 5.65039C321.289 5.65039 320.738 5.89062 320.293 6.37109C319.848 6.8457 319.572 7.51367 319.467 8.375H324.23V8.25195C324.184 7.42578 323.961 6.78711 323.562 6.33594C323.164 5.87891 322.625 5.65039 321.945 5.65039ZM338.082 14C337.988 13.8125 337.912 13.4785 337.854 12.998C337.098 13.7832 336.195 14.1758 335.146 14.1758C334.209 14.1758 333.438 13.9121 332.835 13.3848C332.237 12.8516 331.938 12.1777 331.938 11.3633C331.938 10.373 332.313 9.60547 333.063 9.06055C333.819 8.50977 334.88 8.23438 336.245 8.23438H337.827V7.4873C337.827 6.91895 337.657 6.46777 337.317 6.13379C336.978 5.79395 336.477 5.62402 335.814 5.62402C335.234 5.62402 334.748 5.77051 334.355 6.06348C333.963 6.35645 333.767 6.71094 333.767 7.12695H332.132C332.132 6.65234 332.299 6.19531 332.633 5.75586C332.973 5.31055 333.43 4.95898 334.004 4.70117C334.584 4.44336 335.22 4.31445 335.911 4.31445C337.007 4.31445 337.865 4.58984 338.486 5.14062C339.107 5.68555 339.43 6.43848 339.453 7.39941V11.7764C339.453 12.6494 339.564 13.3438 339.787 13.8594V14H338.082ZM335.384 12.7607C335.894 12.7607 336.377 12.6289 336.834 12.3652C337.291 12.1016 337.622 11.7588 337.827 11.3369V9.38574H336.553C334.561 9.38574 333.564 9.96875 333.564 11.1348C333.564 11.6445 333.734 12.043 334.074 12.3301C334.414 12.6172 334.851 12.7607 335.384 12.7607ZM343.54 4.49023L343.593 5.68555C344.319 4.77148 345.269 4.31445 346.44 4.31445C348.45 4.31445 349.464 5.44824 349.481 7.71582V14H347.855V7.70703C347.85 7.02148 347.691 6.51465 347.381 6.18652C347.076 5.8584 346.599 5.69434 345.948 5.69434C345.421 5.69434 344.958 5.83496 344.56 6.11621C344.161 6.39746 343.851 6.7666 343.628 7.22363V14H342.002V4.49023H343.54ZM351.538 9.16602C351.538 7.70703 351.884 6.53516 352.575 5.65039C353.267 4.75977 354.172 4.31445 355.291 4.31445C356.404 4.31445 357.286 4.69531 357.937 5.45703V0.5H359.562V14H358.068L357.989 12.9805C357.339 13.7773 356.434 14.1758 355.273 14.1758C354.172 14.1758 353.272 13.7246 352.575 12.8223C351.884 11.9199 351.538 10.7422 351.538 9.28906V9.16602ZM353.164 9.35059C353.164 10.4287 353.387 11.2725 353.832 11.8818C354.277 12.4912 354.893 12.7959 355.678 12.7959C356.709 12.7959 357.462 12.333 357.937 11.4072V7.03906C357.45 6.14258 356.703 5.69434 355.695 5.69434C354.898 5.69434 354.277 6.00195 353.832 6.61719C353.387 7.23242 353.164 8.14355 353.164 9.35059ZM366.163 9.16602C366.163 7.70703 366.509 6.53516 367.2 5.65039C367.892 4.75977 368.797 4.31445 369.916 4.31445C371.029 4.31445 371.911 4.69531 372.562 5.45703V0.5H374.188V14H372.693L372.614 12.9805C371.964 13.7773 371.059 14.1758 369.898 14.1758C368.797 14.1758 367.897 13.7246 367.2 12.8223C366.509 11.9199 366.163 10.7422 366.163 9.28906V9.16602ZM367.789 9.35059C367.789 10.4287 368.012 11.2725 368.457 11.8818C368.902 12.4912 369.518 12.7959 370.303 12.7959C371.334 12.7959 372.087 12.333 372.562 11.4072V7.03906C372.075 6.14258 371.328 5.69434 370.32 5.69434C369.523 5.69434 368.902 6.00195 368.457 6.61719C368.012 7.23242 367.789 8.14355 367.789 9.35059ZM380.665 14.1758C379.376 14.1758 378.327 13.7539 377.519 12.9102C376.71 12.0605 376.306 10.9268 376.306 9.50879V9.20996C376.306 8.2666 376.484 7.42578 376.842 6.6875C377.205 5.94336 377.709 5.36328 378.354 4.94727C379.004 4.52539 379.707 4.31445 380.463 4.31445C381.699 4.31445 382.66 4.72168 383.346 5.53613C384.031 6.35059 384.374 7.5166 384.374 9.03418V9.71094H377.932C377.955 10.6484 378.228 11.4072 378.749 11.9873C379.276 12.5615 379.944 12.8486 380.753 12.8486C381.327 12.8486 381.813 12.7314 382.212 12.4971C382.61 12.2627 382.959 11.9521 383.258 11.5654L384.251 12.3389C383.454 13.5635 382.259 14.1758 380.665 14.1758ZM380.463 5.65039C379.807 5.65039 379.256 5.89062 378.811 6.37109C378.365 6.8457 378.09 7.51367 377.984 8.375H382.748V8.25195C382.701 7.42578 382.479 6.78711 382.08 6.33594C381.682 5.87891 381.143 5.65039 380.463 5.65039ZM391.801 11.4775C391.801 11.0381 391.634 10.6982 391.3 10.458C390.972 10.2119 390.395 10.001 389.568 9.8252C388.748 9.64941 388.095 9.43848 387.608 9.19238C387.128 8.94629 386.771 8.65332 386.536 8.31348C386.308 7.97363 386.193 7.56934 386.193 7.10059C386.193 6.32129 386.521 5.66211 387.178 5.12305C387.84 4.58398 388.684 4.31445 389.709 4.31445C390.787 4.31445 391.66 4.59277 392.328 5.14941C393.002 5.70605 393.339 6.41797 393.339 7.28516H391.704C391.704 6.83984 391.514 6.45605 391.133 6.13379C390.758 5.81152 390.283 5.65039 389.709 5.65039C389.117 5.65039 388.654 5.7793 388.32 6.03711C387.986 6.29492 387.819 6.63184 387.819 7.04785C387.819 7.44043 387.975 7.73633 388.285 7.93555C388.596 8.13477 389.155 8.3252 389.964 8.50684C390.778 8.68848 391.438 8.90527 391.941 9.15723C392.445 9.40918 392.817 9.71387 393.058 10.0713C393.304 10.4229 393.427 10.8535 393.427 11.3633C393.427 12.2129 393.087 12.8955 392.407 13.4111C391.728 13.9209 390.846 14.1758 389.762 14.1758C389 14.1758 388.326 14.041 387.74 13.7715C387.154 13.502 386.694 13.127 386.36 12.6465C386.032 12.1602 385.868 11.6357 385.868 11.0732H387.494C387.523 11.6182 387.74 12.0518 388.145 12.374C388.555 12.6904 389.094 12.8486 389.762 12.8486C390.377 12.8486 390.869 12.7256 391.238 12.4795C391.613 12.2275 391.801 11.8936 391.801 11.4775ZM399.359 12.8486C399.939 12.8486 400.446 12.6729 400.88 12.3213C401.313 11.9697 401.554 11.5303 401.601 11.0029H403.139C403.109 11.5479 402.922 12.0664 402.576 12.5586C402.23 13.0508 401.768 13.4434 401.188 13.7363C400.613 14.0293 400.004 14.1758 399.359 14.1758C398.064 14.1758 397.033 13.7451 396.266 12.8838C395.504 12.0166 395.123 10.833 395.123 9.33301V9.06055C395.123 8.13477 395.293 7.31152 395.633 6.59082C395.973 5.87012 396.459 5.31055 397.092 4.91211C397.73 4.51367 398.483 4.31445 399.351 4.31445C400.417 4.31445 401.302 4.63379 402.005 5.27246C402.714 5.91113 403.092 6.74023 403.139 7.75977H401.601C401.554 7.14453 401.319 6.64062 400.897 6.24805C400.481 5.84961 399.966 5.65039 399.351 5.65039C398.524 5.65039 397.883 5.94922 397.426 6.54688C396.975 7.13867 396.749 7.99707 396.749 9.12207V9.42969C396.749 10.5254 396.975 11.3691 397.426 11.9609C397.877 12.5527 398.521 12.8486 399.359 12.8486ZM409.563 5.94922C409.317 5.9082 409.051 5.8877 408.764 5.8877C407.697 5.8877 406.974 6.3418 406.593 7.25V14H404.967V4.49023H406.549L406.575 5.58887C407.108 4.73926 407.864 4.31445 408.843 4.31445C409.159 4.31445 409.399 4.35547 409.563 4.4375V5.94922ZM412.833 14H411.207V4.49023H412.833V14ZM411.075 1.96777C411.075 1.7041 411.154 1.48145 411.312 1.2998C411.477 1.11816 411.717 1.02734 412.033 1.02734C412.35 1.02734 412.59 1.11816 412.754 1.2998C412.918 1.48145 413 1.7041 413 1.96777C413 2.23145 412.918 2.45117 412.754 2.62695C412.59 2.80273 412.35 2.89062 412.033 2.89062C411.717 2.89062 411.477 2.80273 411.312 2.62695C411.154 2.45117 411.075 2.23145 411.075 1.96777ZM423.494 9.35059C423.494 10.8037 423.16 11.9727 422.492 12.8574C421.824 13.7363 420.928 14.1758 419.803 14.1758C418.602 14.1758 417.673 13.751 417.017 12.9014L416.938 14H415.443V0.5H417.069V5.53613C417.726 4.72168 418.631 4.31445 419.785 4.31445C420.939 4.31445 421.845 4.75098 422.501 5.62402C423.163 6.49707 423.494 7.69238 423.494 9.20996V9.35059ZM421.868 9.16602C421.868 8.05859 421.654 7.20312 421.227 6.59961C420.799 5.99609 420.184 5.69434 419.381 5.69434C418.309 5.69434 417.538 6.19238 417.069 7.18848V11.3018C417.567 12.2979 418.344 12.7959 419.398 12.7959C420.178 12.7959 420.784 12.4941 421.218 11.8906C421.651 11.2871 421.868 10.3789 421.868 9.16602ZM429.497 14.1758C428.208 14.1758 427.159 13.7539 426.351 12.9102C425.542 12.0605 425.138 10.9268 425.138 9.50879V9.20996C425.138 8.2666 425.316 7.42578 425.674 6.6875C426.037 5.94336 426.541 5.36328 427.186 4.94727C427.836 4.52539 428.539 4.31445 429.295 4.31445C430.531 4.31445 431.492 4.72168 432.178 5.53613C432.863 6.35059 433.206 7.5166 433.206 9.03418V9.71094H426.764C426.787 10.6484 427.06 11.4072 427.581 11.9873C428.108 12.5615 428.776 12.8486 429.585 12.8486C430.159 12.8486 430.646 12.7314 431.044 12.4971C431.442 12.2627 431.791 11.9521 432.09 11.5654L433.083 12.3389C432.286 13.5635 431.091 14.1758 429.497 14.1758ZM429.295 5.65039C428.639 5.65039 428.088 5.89062 427.643 6.37109C427.197 6.8457 426.922 7.51367 426.816 8.375H431.58V8.25195C431.533 7.42578 431.311 6.78711 430.912 6.33594C430.514 5.87891 429.975 5.65039 429.295 5.65039ZM441.767 2.1875V4.49023H443.542V5.74707H441.767V11.6445C441.767 12.0254 441.846 12.3125 442.004 12.5059C442.162 12.6934 442.432 12.7871 442.812 12.7871C443 12.7871 443.258 12.752 443.586 12.6816V14C443.158 14.1172 442.742 14.1758 442.338 14.1758C441.611 14.1758 441.063 13.9561 440.694 13.5166C440.325 13.0771 440.141 12.4531 440.141 11.6445V5.74707H438.409V4.49023H440.141V2.1875H441.767ZM447.075 5.6416C447.796 4.75684 448.733 4.31445 449.888 4.31445C451.897 4.31445 452.911 5.44824 452.929 7.71582V14H451.303V7.70703C451.297 7.02148 451.139 6.51465 450.828 6.18652C450.523 5.8584 450.046 5.69434 449.396 5.69434C448.868 5.69434 448.405 5.83496 448.007 6.11621C447.608 6.39746 447.298 6.7666 447.075 7.22363V14H445.449V0.5H447.075V5.6416ZM459.31 14.1758C458.021 14.1758 456.972 13.7539 456.163 12.9102C455.354 12.0605 454.95 10.9268 454.95 9.50879V9.20996C454.95 8.2666 455.129 7.42578 455.486 6.6875C455.85 5.94336 456.354 5.36328 456.998 4.94727C457.648 4.52539 458.352 4.31445 459.107 4.31445C460.344 4.31445 461.305 4.72168 461.99 5.53613C462.676 6.35059 463.019 7.5166 463.019 9.03418V9.71094H456.576C456.6 10.6484 456.872 11.4072 457.394 11.9873C457.921 12.5615 458.589 12.8486 459.397 12.8486C459.972 12.8486 460.458 12.7314 460.856 12.4971C461.255 12.2627 461.604 11.9521 461.902 11.5654L462.896 12.3389C462.099 13.5635 460.903 14.1758 459.31 14.1758ZM459.107 5.65039C458.451 5.65039 457.9 5.89062 457.455 6.37109C457.01 6.8457 456.734 7.51367 456.629 8.375H461.393V8.25195C461.346 7.42578 461.123 6.78711 460.725 6.33594C460.326 5.87891 459.787 5.65039 459.107 5.65039ZM477.406 9.35059C477.406 10.7979 477.075 11.9639 476.413 12.8486C475.751 13.7334 474.854 14.1758 473.724 14.1758C472.569 14.1758 471.661 13.8096 470.999 13.0771V17.6562H469.373V4.49023H470.858L470.938 5.54492C471.6 4.72461 472.52 4.31445 473.697 4.31445C474.84 4.31445 475.742 4.74512 476.404 5.60645C477.072 6.46777 477.406 7.66602 477.406 9.20117V9.35059ZM475.78 9.16602C475.78 8.09375 475.552 7.24707 475.095 6.62598C474.638 6.00488 474.011 5.69434 473.214 5.69434C472.229 5.69434 471.491 6.13086 470.999 7.00391V11.5479C471.485 12.415 472.229 12.8486 473.231 12.8486C474.011 12.8486 474.629 12.541 475.086 11.9258C475.549 11.3047 475.78 10.3848 475.78 9.16602ZM484.077 5.94922C483.831 5.9082 483.564 5.8877 483.277 5.8877C482.211 5.8877 481.487 6.3418 481.106 7.25V14H479.48V4.49023H481.062L481.089 5.58887C481.622 4.73926 482.378 4.31445 483.356 4.31445C483.673 4.31445 483.913 4.35547 484.077 4.4375V5.94922ZM484.974 9.15723C484.974 8.22559 485.155 7.3877 485.519 6.64355C485.888 5.89941 486.397 5.3252 487.048 4.9209C487.704 4.5166 488.451 4.31445 489.289 4.31445C490.584 4.31445 491.63 4.7627 492.427 5.65918C493.229 6.55566 493.631 7.74805 493.631 9.23633V9.35059C493.631 10.2764 493.452 11.1084 493.095 11.8467C492.743 12.5791 492.236 13.1504 491.574 13.5605C490.918 13.9707 490.162 14.1758 489.307 14.1758C488.018 14.1758 486.972 13.7275 486.169 12.8311C485.372 11.9346 484.974 10.748 484.974 9.27148V9.15723ZM486.608 9.35059C486.608 10.4053 486.852 11.252 487.338 11.8906C487.83 12.5293 488.486 12.8486 489.307 12.8486C490.133 12.8486 490.789 12.5264 491.275 11.8818C491.762 11.2314 492.005 10.3232 492.005 9.15723C492.005 8.11426 491.756 7.27051 491.258 6.62598C490.766 5.97559 490.109 5.65039 489.289 5.65039C488.486 5.65039 487.839 5.96973 487.347 6.6084C486.854 7.24707 486.608 8.16113 486.608 9.35059ZM503.721 9.35059C503.721 10.8037 503.387 11.9727 502.719 12.8574C502.051 13.7363 501.154 14.1758 500.029 14.1758C498.828 14.1758 497.899 13.751 497.243 12.9014L497.164 14H495.67V0.5H497.296V5.53613C497.952 4.72168 498.857 4.31445 500.012 4.31445C501.166 4.31445 502.071 4.75098 502.728 5.62402C503.39 6.49707 503.721 7.69238 503.721 9.20996V9.35059ZM502.095 9.16602C502.095 8.05859 501.881 7.20312 501.453 6.59961C501.025 5.99609 500.41 5.69434 499.607 5.69434C498.535 5.69434 497.765 6.19238 497.296 7.18848V11.3018C497.794 12.2979 498.57 12.7959 499.625 12.7959C500.404 12.7959 501.011 12.4941 501.444 11.8906C501.878 11.2871 502.095 10.3789 502.095 9.16602ZM507.544 14H505.918V0.5H507.544V14ZM514.101 14.1758C512.812 14.1758 511.763 13.7539 510.954 12.9102C510.146 12.0605 509.741 10.9268 509.741 9.50879V9.20996C509.741 8.2666 509.92 7.42578 510.277 6.6875C510.641 5.94336 511.145 5.36328 511.789 4.94727C512.439 4.52539 513.143 4.31445 513.898 4.31445C515.135 4.31445 516.096 4.72168 516.781 5.53613C517.467 6.35059 517.81 7.5166 517.81 9.03418V9.71094H511.367C511.391 10.6484 511.663 11.4072 512.185 11.9873C512.712 12.5615 513.38 12.8486 514.188 12.8486C514.763 12.8486 515.249 12.7314 515.647 12.4971C516.046 12.2627 516.395 11.9521 516.693 11.5654L517.687 12.3389C516.89 13.5635 515.694 14.1758 514.101 14.1758ZM513.898 5.65039C513.242 5.65039 512.691 5.89062 512.246 6.37109C511.801 6.8457 511.525 7.51367 511.42 8.375H516.184V8.25195C516.137 7.42578 515.914 6.78711 515.516 6.33594C515.117 5.87891 514.578 5.65039 513.898 5.65039ZM521.229 4.49023L521.272 5.54492C521.97 4.72461 522.91 4.31445 524.094 4.31445C525.424 4.31445 526.329 4.82422 526.81 5.84375C527.126 5.38672 527.536 5.01758 528.04 4.73633C528.55 4.45508 529.15 4.31445 529.842 4.31445C531.928 4.31445 532.988 5.41895 533.023 7.62793V14H531.397V7.72461C531.397 7.04492 531.242 6.53809 530.932 6.2041C530.621 5.86426 530.1 5.69434 529.367 5.69434C528.764 5.69434 528.263 5.87598 527.864 6.23926C527.466 6.59668 527.234 7.08008 527.17 7.68945V14H525.535V7.76855C525.535 6.38574 524.858 5.69434 523.505 5.69434C522.438 5.69434 521.709 6.14844 521.316 7.05664V14H519.69V4.49023H521.229ZM535.52 13.1475C535.52 12.8662 535.602 12.6318 535.766 12.4443C535.936 12.2568 536.188 12.1631 536.521 12.1631C536.855 12.1631 537.107 12.2568 537.277 12.4443C537.453 12.6318 537.541 12.8662 537.541 13.1475C537.541 13.417 537.453 13.6426 537.277 13.8242C537.107 14.0059 536.855 14.0967 536.521 14.0967C536.188 14.0967 535.936 14.0059 535.766 13.8242C535.602 13.6426 535.52 13.417 535.52 13.1475ZM323.396 35H321.708V22.2031H323.396V35ZM336.57 35C336.477 34.8125 336.4 34.4785 336.342 33.998C335.586 34.7832 334.684 35.1758 333.635 35.1758C332.697 35.1758 331.927 34.9121 331.323 34.3848C330.726 33.8516 330.427 33.1777 330.427 32.3633C330.427 31.373 330.802 30.6055 331.552 30.0605C332.308 29.5098 333.368 29.2344 334.733 29.2344H336.315V28.4873C336.315 27.9189 336.146 27.4678 335.806 27.1338C335.466 26.7939 334.965 26.624 334.303 26.624C333.723 26.624 333.236 26.7705 332.844 27.0635C332.451 27.3564 332.255 27.7109 332.255 28.127H330.62C330.62 27.6523 330.787 27.1953 331.121 26.7559C331.461 26.3105 331.918 25.959 332.492 25.7012C333.072 25.4434 333.708 25.3145 334.399 25.3145C335.495 25.3145 336.354 25.5898 336.975 26.1406C337.596 26.6855 337.918 27.4385 337.941 28.3994V32.7764C337.941 33.6494 338.053 34.3438 338.275 34.8594V35H336.57ZM333.872 33.7607C334.382 33.7607 334.865 33.6289 335.322 33.3652C335.779 33.1016 336.11 32.7588 336.315 32.3369V30.3857H335.041C333.049 30.3857 332.053 30.9688 332.053 32.1348C332.053 32.6445 332.223 33.043 332.562 33.3301C332.902 33.6172 333.339 33.7607 333.872 33.7607ZM342.02 25.4902L342.063 26.5449C342.761 25.7246 343.701 25.3145 344.885 25.3145C346.215 25.3145 347.12 25.8242 347.601 26.8438C347.917 26.3867 348.327 26.0176 348.831 25.7363C349.341 25.4551 349.941 25.3145 350.633 25.3145C352.719 25.3145 353.779 26.4189 353.814 28.6279V35H352.188V28.7246C352.188 28.0449 352.033 27.5381 351.723 27.2041C351.412 26.8643 350.891 26.6943 350.158 26.6943C349.555 26.6943 349.054 26.876 348.655 27.2393C348.257 27.5967 348.025 28.0801 347.961 28.6895V35H346.326V28.7686C346.326 27.3857 345.649 26.6943 344.296 26.6943C343.229 26.6943 342.5 27.1484 342.107 28.0566V35H340.481V25.4902H342.02ZM369.16 32.7588L370.988 25.4902H372.614L369.846 35H368.527L366.216 27.793L363.966 35H362.647L359.888 25.4902H361.505L363.377 32.6094L365.592 25.4902H366.901L369.16 32.7588ZM376.042 35H374.416V25.4902H376.042V35ZM374.284 22.9678C374.284 22.7041 374.363 22.4814 374.521 22.2998C374.686 22.1182 374.926 22.0273 375.242 22.0273C375.559 22.0273 375.799 22.1182 375.963 22.2998C376.127 22.4814 376.209 22.7041 376.209 22.9678C376.209 23.2314 376.127 23.4512 375.963 23.627C375.799 23.8027 375.559 23.8906 375.242 23.8906C374.926 23.8906 374.686 23.8027 374.521 23.627C374.363 23.4512 374.284 23.2314 374.284 22.9678ZM380.419 35H378.793V21.5H380.419V35ZM384.796 35H383.17V21.5H384.796V35ZM399.922 30.3506C399.922 31.8037 399.588 32.9727 398.92 33.8574C398.252 34.7363 397.355 35.1758 396.23 35.1758C395.029 35.1758 394.101 34.751 393.444 33.9014L393.365 35H391.871V21.5H393.497V26.5361C394.153 25.7217 395.059 25.3145 396.213 25.3145C397.367 25.3145 398.272 25.751 398.929 26.624C399.591 27.4971 399.922 28.6924 399.922 30.21V30.3506ZM398.296 30.166C398.296 29.0586 398.082 28.2031 397.654 27.5996C397.227 26.9961 396.611 26.6943 395.809 26.6943C394.736 26.6943 393.966 27.1924 393.497 28.1885V32.3018C393.995 33.2979 394.771 33.7959 395.826 33.7959C396.605 33.7959 397.212 33.4941 397.646 32.8906C398.079 32.2871 398.296 31.3789 398.296 30.166ZM405.925 35.1758C404.636 35.1758 403.587 34.7539 402.778 33.9102C401.97 33.0605 401.565 31.9268 401.565 30.5088V30.21C401.565 29.2666 401.744 28.4258 402.102 27.6875C402.465 26.9434 402.969 26.3633 403.613 25.9473C404.264 25.5254 404.967 25.3145 405.723 25.3145C406.959 25.3145 407.92 25.7217 408.605 26.5361C409.291 27.3506 409.634 28.5166 409.634 30.0342V30.7109H403.191C403.215 31.6484 403.487 32.4072 404.009 32.9873C404.536 33.5615 405.204 33.8486 406.013 33.8486C406.587 33.8486 407.073 33.7314 407.472 33.4971C407.87 33.2627 408.219 32.9521 408.518 32.5654L409.511 33.3389C408.714 34.5635 407.519 35.1758 405.925 35.1758ZM405.723 26.6504C405.066 26.6504 404.516 26.8906 404.07 27.3711C403.625 27.8457 403.35 28.5137 403.244 29.375H408.008V29.252C407.961 28.4258 407.738 27.7871 407.34 27.3359C406.941 26.8789 406.402 26.6504 405.723 26.6504ZM415.602 30.166C415.602 28.6836 415.944 27.5059 416.63 26.6328C417.315 25.7539 418.224 25.3145 419.354 25.3145C420.515 25.3145 421.42 25.7246 422.07 26.5449L422.149 25.4902H423.635V34.7715C423.635 36.002 423.269 36.9717 422.536 37.6807C421.81 38.3896 420.831 38.7441 419.601 38.7441C418.915 38.7441 418.244 38.5977 417.588 38.3047C416.932 38.0117 416.431 37.6104 416.085 37.1006L416.929 36.125C417.626 36.9863 418.479 37.417 419.486 37.417C420.277 37.417 420.893 37.1943 421.332 36.749C421.777 36.3037 422 35.6768 422 34.8682V34.0508C421.35 34.8008 420.462 35.1758 419.337 35.1758C418.224 35.1758 417.321 34.7275 416.63 33.8311C415.944 32.9346 415.602 31.7129 415.602 30.166ZM417.236 30.3506C417.236 31.4229 417.456 32.2666 417.896 32.8818C418.335 33.4912 418.95 33.7959 419.741 33.7959C420.767 33.7959 421.52 33.3301 422 32.3984V28.0566C421.502 27.1484 420.755 26.6943 419.759 26.6943C418.968 26.6943 418.35 27.002 417.904 27.6172C417.459 28.2324 417.236 29.1436 417.236 30.3506ZM430.692 26.9492C430.446 26.9082 430.18 26.8877 429.893 26.8877C428.826 26.8877 428.103 27.3418 427.722 28.25V35H426.096V25.4902H427.678L427.704 26.5889C428.237 25.7393 428.993 25.3145 429.972 25.3145C430.288 25.3145 430.528 25.3555 430.692 25.4375V26.9492ZM437.715 35C437.621 34.8125 437.545 34.4785 437.486 33.998C436.73 34.7832 435.828 35.1758 434.779 35.1758C433.842 35.1758 433.071 34.9121 432.468 34.3848C431.87 33.8516 431.571 33.1777 431.571 32.3633C431.571 31.373 431.946 30.6055 432.696 30.0605C433.452 29.5098 434.513 29.2344 435.878 29.2344H437.46V28.4873C437.46 27.9189 437.29 27.4678 436.95 27.1338C436.61 26.7939 436.109 26.624 435.447 26.624C434.867 26.624 434.381 26.7705 433.988 27.0635C433.596 27.3564 433.399 27.7109 433.399 28.127H431.765C431.765 27.6523 431.932 27.1953 432.266 26.7559C432.605 26.3105 433.062 25.959 433.637 25.7012C434.217 25.4434 434.853 25.3145 435.544 25.3145C436.64 25.3145 437.498 25.5898 438.119 26.1406C438.74 26.6855 439.062 27.4385 439.086 28.3994V32.7764C439.086 33.6494 439.197 34.3438 439.42 34.8594V35H437.715ZM435.017 33.7607C435.526 33.7607 436.01 33.6289 436.467 33.3652C436.924 33.1016 437.255 32.7588 437.46 32.3369V30.3857H436.186C434.193 30.3857 433.197 30.9688 433.197 32.1348C433.197 32.6445 433.367 33.043 433.707 33.3301C434.047 33.6172 434.483 33.7607 435.017 33.7607ZM443.841 23.1875V25.4902H445.616V26.7471H443.841V32.6445C443.841 33.0254 443.92 33.3125 444.078 33.5059C444.236 33.6934 444.506 33.7871 444.887 33.7871C445.074 33.7871 445.332 33.752 445.66 33.6816V35C445.232 35.1172 444.816 35.1758 444.412 35.1758C443.686 35.1758 443.138 34.9561 442.769 34.5166C442.399 34.0771 442.215 33.4531 442.215 32.6445V26.7471H440.483V25.4902H442.215V23.1875H443.841ZM451.47 35.1758C450.181 35.1758 449.132 34.7539 448.323 33.9102C447.515 33.0605 447.11 31.9268 447.11 30.5088V30.21C447.11 29.2666 447.289 28.4258 447.646 27.6875C448.01 26.9434 448.514 26.3633 449.158 25.9473C449.809 25.5254 450.512 25.3145 451.268 25.3145C452.504 25.3145 453.465 25.7217 454.15 26.5361C454.836 27.3506 455.179 28.5166 455.179 30.0342V30.7109H448.736C448.76 31.6484 449.032 32.4072 449.554 32.9873C450.081 33.5615 450.749 33.8486 451.558 33.8486C452.132 33.8486 452.618 33.7314 453.017 33.4971C453.415 33.2627 453.764 32.9521 454.062 32.5654L455.056 33.3389C454.259 34.5635 453.063 35.1758 451.47 35.1758ZM451.268 26.6504C450.611 26.6504 450.061 26.8906 449.615 27.3711C449.17 27.8457 448.895 28.5137 448.789 29.375H453.553V29.252C453.506 28.4258 453.283 27.7871 452.885 27.3359C452.486 26.8789 451.947 26.6504 451.268 26.6504ZM457.868 35V26.7471H456.365V25.4902H457.868V24.5146C457.868 23.4951 458.141 22.707 458.686 22.1504C459.23 21.5938 460.001 21.3154 460.997 21.3154C461.372 21.3154 461.744 21.3652 462.113 21.4648L462.025 22.7832C461.75 22.7305 461.457 22.7041 461.146 22.7041C460.619 22.7041 460.212 22.8594 459.925 23.1699C459.638 23.4746 459.494 23.9141 459.494 24.4883V25.4902H461.524V26.7471H459.494V35H457.868ZM469.197 34.0596C468.564 34.8037 467.636 35.1758 466.411 35.1758C465.397 35.1758 464.624 34.8828 464.091 34.2969C463.563 33.7051 463.297 32.832 463.291 31.6777V25.4902H464.917V31.6338C464.917 33.0752 465.503 33.7959 466.675 33.7959C467.917 33.7959 468.743 33.333 469.153 32.4072V25.4902H470.779V35H469.232L469.197 34.0596ZM475.024 35H473.398V21.5H475.024V35ZM484.306 23.1875V25.4902H486.081V26.7471H484.306V32.6445C484.306 33.0254 484.385 33.3125 484.543 33.5059C484.701 33.6934 484.971 33.7871 485.352 33.7871C485.539 33.7871 485.797 33.752 486.125 33.6816V35C485.697 35.1172 485.281 35.1758 484.877 35.1758C484.15 35.1758 483.603 34.9561 483.233 34.5166C482.864 34.0771 482.68 33.4531 482.68 32.6445V26.7471H480.948V25.4902H482.68V23.1875H484.306ZM487.382 30.1572C487.382 29.2256 487.563 28.3877 487.927 27.6436C488.296 26.8994 488.806 26.3252 489.456 25.9209C490.112 25.5166 490.859 25.3145 491.697 25.3145C492.992 25.3145 494.038 25.7627 494.835 26.6592C495.638 27.5557 496.039 28.748 496.039 30.2363V30.3506C496.039 31.2764 495.86 32.1084 495.503 32.8467C495.151 33.5791 494.645 34.1504 493.982 34.5605C493.326 34.9707 492.57 35.1758 491.715 35.1758C490.426 35.1758 489.38 34.7275 488.577 33.8311C487.78 32.9346 487.382 31.748 487.382 30.2715V30.1572ZM489.017 30.3506C489.017 31.4053 489.26 32.252 489.746 32.8906C490.238 33.5293 490.895 33.8486 491.715 33.8486C492.541 33.8486 493.197 33.5264 493.684 32.8818C494.17 32.2314 494.413 31.3232 494.413 30.1572C494.413 29.1143 494.164 28.2705 493.666 27.626C493.174 26.9756 492.518 26.6504 491.697 26.6504C490.895 26.6504 490.247 26.9697 489.755 27.6084C489.263 28.2471 489.017 29.1611 489.017 30.3506ZM505.654 32.6182L507.869 25.4902H509.609L505.786 36.4678C505.194 38.0498 504.254 38.8408 502.965 38.8408L502.657 38.8145L502.051 38.7002V37.3818L502.49 37.417C503.041 37.417 503.469 37.3057 503.773 37.083C504.084 36.8604 504.339 36.4531 504.538 35.8613L504.898 34.8945L501.506 25.4902H503.281L505.654 32.6182ZM510.497 30.1572C510.497 29.2256 510.679 28.3877 511.042 27.6436C511.411 26.8994 511.921 26.3252 512.571 25.9209C513.228 25.5166 513.975 25.3145 514.812 25.3145C516.107 25.3145 517.153 25.7627 517.95 26.6592C518.753 27.5557 519.154 28.748 519.154 30.2363V30.3506C519.154 31.2764 518.976 32.1084 518.618 32.8467C518.267 33.5791 517.76 34.1504 517.098 34.5605C516.441 34.9707 515.686 35.1758 514.83 35.1758C513.541 35.1758 512.495 34.7275 511.692 33.8311C510.896 32.9346 510.497 31.748 510.497 30.2715V30.1572ZM512.132 30.3506C512.132 31.4053 512.375 32.252 512.861 32.8906C513.354 33.5293 514.01 33.8486 514.83 33.8486C515.656 33.8486 516.312 33.5264 516.799 32.8818C517.285 32.2314 517.528 31.3232 517.528 30.1572C517.528 29.1143 517.279 28.2705 516.781 27.626C516.289 26.9756 515.633 26.6504 514.812 26.6504C514.01 26.6504 513.362 26.9697 512.87 27.6084C512.378 28.2471 512.132 29.1611 512.132 30.3506ZM527.064 34.0596C526.432 34.8037 525.503 35.1758 524.278 35.1758C523.265 35.1758 522.491 34.8828 521.958 34.2969C521.431 33.7051 521.164 32.832 521.158 31.6777V25.4902H522.784V31.6338C522.784 33.0752 523.37 33.7959 524.542 33.7959C525.784 33.7959 526.61 33.333 527.021 32.4072V25.4902H528.646V35H527.1L527.064 34.0596Z" fill="#FF0000"/>
</svg>
